Saxy.ufo
<glyph name="hyphen" format="2">
  <advance width="0"/>
  <unicode hex="002D"/>
  <outline>
    <contour>
      <point x="166.938" y="304.442" type="move"/>
      <point x="239.822" y="304.442" type="line"/>
    </contour>
  </outline>
</glyph>
<glyph name="zero" format="2">
  <advance width="0"/>
  <unicode hex="0030"/>
  <outline>
    <contour>
      <point x="77.1875" y="538.339" type="curve" smooth="yes"/>
      <point x="77.1875" y="551.622"/>
      <point x="87.9561" y="562.39"/>
      <point x="101.239" y="562.39" type="curve" smooth="yes"/>
      <point x="114.522" y="562.39"/>
      <point x="125.29" y="551.622"/>
      <point x="125.29" y="538.339" type="curve" smooth="yes"/>
      <point x="125.29" y="525.056"/>
      <point x="114.522" y="514.287"/>
      <point x="101.239" y="514.287" type="curve" smooth="yes"/>
      <point x="87.9561" y="514.287"/>
      <point x="77.1875" y="525.056"/>
    </contour>
  </outline>
</glyph>
<glyph name="two" format="2">
  <advance width="0"/>
  <unicode hex="0032"/>
  <outline>
    <contour>
      <point x="161.73" y="493.004" type="curve" smooth="yes"/>
      <point x="161.73" y="514.572"/>
      <point x="179.215" y="532.058"/>
      <point x="200.783" y="532.058" type="curve" smooth="yes"/>
      <point x="222.353" y="532.058"/>
      <point x="239.837" y="514.572"/>
      <point x="239.837" y="493.004" type="curve" smooth="yes"/>
      <point x="239.837" y="471.436"/>
      <point x="222.353" y="453.95"/>
      <point x="200.783" y="453.95" type="curve" smooth="yes"/>
      <point x="179.215" y="453.95"/>
      <point x="161.73" y="471.436"/>
    </contour>
  </outline>
</glyph>
<glyph name="three" format="2">
  <advance width="0"/>
  <unicode hex="0033"/>
  <outline>
    <contour>
      <point x="161.73" y="387.742" type="curve" smooth="yes"/>
      <point x="161.73" y="409.311"/>
      <point x="179.215" y="426.796"/>
      <point x="200.783" y="426.796" type="curve" smooth="yes"/>
      <point x="222.353" y="426.796"/>
      <point x="239.837" y="409.311"/>
      <point x="239.837" y="387.742" type="curve" smooth="yes"/>
      <point x="239.837" y="366.174"/>
      <point x="222.353" y="348.688"/>
      <point x="200.783" y="348.688" type="curve" smooth="yes"/>
      <point x="179.215" y="348.688"/>
      <point x="161.73" y="366.174"/>
    </contour>
  </outline>
</glyph>
<glyph name="four" format="2">
  <advance width="0"/>
  <unicode hex="0034"/>
  <outline>
    <contour>
      <point x="161.73" y="221.114" type="curve" smooth="yes"/>
      <point x="161.73" y="242.683"/>
      <point x="179.215" y="260.167"/>
      <point x="200.783" y="260.167" type="curve" smooth="yes"/>
      <point x="222.353" y="260.167"/>
      <point x="239.837" y="242.683"/>
      <point x="239.837" y="221.114" type="curve" smooth="yes"/>
      <point x="239.837" y="199.545"/>
      <point x="222.353" y="182.061"/>
      <point x="200.783" y="182.061" type="curve" smooth="yes"/>
      <point x="179.215" y="182.061"/>
      <point x="161.73" y="199.545"/>
    </contour>
  </outline>
</glyph>
<glyph name="six" format="2">
  <advance width="0"/>
  <unicode hex="0036"/>
  <outline>
    <contour>
      <point x="161.73" y="-8" type="curve" smooth="yes"/>
      <point x="161.73" y="13.5684"/>
      <point x="179.215" y="31.0537"/>
      <point x="200.783" y="31.0537" type="curve" smooth="yes"/>
      <point x="222.353" y="31.0537"/>
      <point x="239.837" y="13.5684"/>
      <point x="239.837" y="-8" type="curve" smooth="yes"/>
      <point x="239.837" y="-29.5684"/>
      <point x="222.353" y="-47.0537"/>
      <point x="200.783" y="-47.0537" type="curve" smooth="yes"/>
      <point x="179.215" y="-47.0537"/>
      <point x="161.73" y="-29.5684"/>
    </contour>
  </outline>
</glyph>
<glyph name="seven" format="2">
  <advance width="0"/>
  <unicode hex="0037"/>
  <outline>
    <contour>
      <point x="177.385" y="-98.9619" type="line"/>
      <point x="177.385" y="-113.29"/>
      <point x="161.874" y="-124.923"/>
      <point x="142.77" y="-124.923" type="curve" smooth="yes"/>
      <point x="121.285" y="-124.916"/>
      <point x="103.846" y="-113.286"/>
      <point x="103.846" y="-98.9619" type="curve"/>
    </contour>
  </outline>
</glyph>
<glyph name="eight" format="2">
  <advance width="0"/>
  <unicode hex="0038"/>
  <outline>
    <contour>
      <point x="77.8848" y="609.581" type="curve" smooth="yes"/>
      <point x="77.8848" y="638.257"/>
      <point x="85.6338" y="661.504"/>
      <point x="95.1924" y="661.504" type="curve" smooth="yes"/>
      <point x="104.751" y="661.504"/>
      <point x="112.5" y="638.257"/>
      <point x="112.5" y="609.581" type="curve" smooth="yes"/>
      <point x="112.5" y="580.904"/>
      <point x="104.751" y="557.657"/>
      <point x="95.1924" y="557.657" type="curve" smooth="yes"/>
      <point x="85.6338" y="557.657"/>
      <point x="77.8848" y="580.904"/>
    </contour>
  </outline>
</glyph>
<glyph name="nine" format="2">
  <advance width="0"/>
  <unicode hex="0039"/>
  <outline>
    <contour>
      <point x="121.355" y="515.307" type="curve" smooth="yes"/>
      <point x="123.129" y="511.959"/>
      <point x="123.507" y="485.374"/>
      <point x="111.546" y="485.412" type="curve" smooth="yes"/>
      <point x="99.584" y="485.449"/>
      <point x="79.1641" y="516.993"/>
      <point x="83.0107" y="514.143" type="curve" smooth="yes"/>
      <point x="86.6016" y="511.481"/>
      <point x="93.3994" y="506.154"/>
      <point x="102.418" y="506.987" type="curve" smooth="yes"/>
      <point x="111.544" y="507.83"/>
      <point x="120.546" y="516.836"/>
    </contour>
  </outline>
</glyph>
<glyph name="a" format="2">
  <advance width="0"/>
  <unicode hex="0061"/>
  <outline>
    <contour>
      <point x="85.0576" y="259.727" type="line"/>
      <point x="90.6738" y="264.381" type="line" smooth="yes"/>
      <point x="91.2734" y="264.881"/>
      <point x="92.0479" y="265.183"/>
      <point x="92.8896" y="265.183" type="curve" smooth="yes"/>
      <point x="108.404" y="265.188" type="line" smooth="yes"/>
      <point x="109.359" y="265.188"/>
      <point x="110.226" y="264.801"/>
      <point x="110.852" y="264.175" type="curve" smooth="yes"/>
      <point x="118.866" y="256.188" type="line" smooth="yes"/>
      <point x="119.492" y="255.562"/>
      <point x="119.88" y="254.696"/>
      <point x="119.88" y="253.741" type="curve" smooth="yes"/>
      <point x="119.866" y="215.843" type="line" smooth="yes"/>
      <point x="119.866" y="214.906"/>
      <point x="119.493" y="214.056"/>
      <point x="118.889" y="213.433" type="curve" smooth="yes"/>
      <point x="108.289" y="202.458" type="line" smooth="yes"/>
      <point x="107.659" y="201.809"/>
      <point x="106.778" y="201.406"/>
      <point x="105.804" y="201.406" type="curve" smooth="yes"/>
      <point x="93.0576" y="201.419" type="line" smooth="yes"/>
      <point x="92.1025" y="201.419"/>
      <point x="91.2373" y="201.807"/>
      <point x="90.6104" y="202.433" type="curve" smooth="yes"/>
      <point x="84.5967" y="208.458" type="line" smooth="yes"/>
      <point x="83.9697" y="209.084"/>
      <point x="83.582" y="209.949"/>
      <point x="83.582" y="210.905" type="curve" smooth="yes"/>
      <point x="83.582" y="210.911"/>
      <point x="83.583" y="210.917"/>
      <point x="83.583" y="210.924" type="curve" smooth="yes"/>
      <point x="83.8271" y="257.073" type="line" smooth="yes"/>
      <point x="83.833" y="258.135"/>
      <point x="84.3154" y="259.082"/>
      <point x="85.0732" y="259.714" type="curve"/>
    </contour>
  </outline>
</glyph>
<glyph name="b" format="2">
  <advance width="0"/>
  <unicode hex="0062"/>
  <outline>
    <contour>
      <point x="266.145" y="330.292" type="line"/>
      <point x="296.311" y="330.285"/>
      <point x="320.798" y="314.532"/>
      <point x="320.798" y="295.139" type="curve" smooth="yes"/>
      <point x="320.795" y="286.527"/>
      <point x="314.973" y="279.535"/>
      <point x="307.798" y="279.523" type="curve" smooth="yes"/>
      <point x="276.567" y="279.523" type="line"/>
      <point x="276.552" y="279.523" type="line" smooth="yes"/>
      <point x="270.098" y="279.523"/>
      <point x="264.854" y="284.174"/>
      <point x="264.837" y="289.907" type="curve" smooth="yes"/>
    </contour>
  </outline>
</glyph>
<glyph name="c" format="2">
  <advance width="0"/>
  <unicode hex="0063"/>
  <outline>
    <contour>
      <point x="85.0576" y="337.831" type="line"/>
      <point x="90.6738" y="342.484" type="line" smooth="yes"/>
      <point x="91.2734" y="342.984"/>
      <point x="92.0479" y="343.287"/>
      <point x="92.8896" y="343.287" type="curve" smooth="yes"/>
      <point x="108.404" y="343.292" type="line" smooth="yes"/>
      <point x="109.359" y="343.292"/>
      <point x="110.226" y="342.905"/>
      <point x="110.852" y="342.278" type="curve" smooth="yes"/>
      <point x="118.866" y="334.292" type="line" smooth="yes"/>
      <point x="119.492" y="333.666"/>
      <point x="119.88" y="332.8"/>
      <point x="119.88" y="331.845" type="curve" smooth="yes"/>
      <point x="119.866" y="293.946" type="line" smooth="yes"/>
      <point x="119.866" y="293.01"/>
      <point x="119.493" y="292.159"/>
      <point x="118.889" y="291.536" type="curve" smooth="yes"/>
      <point x="108.289" y="280.562" type="line" smooth="yes"/>
      <point x="107.659" y="279.913"/>
      <point x="106.778" y="279.51"/>
      <point x="105.804" y="279.51" type="curve" smooth="yes"/>
      <point x="93.0576" y="279.523" type="line" smooth="yes"/>
      <point x="92.1025" y="279.523"/>
      <point x="91.2373" y="279.91"/>
      <point x="90.6104" y="280.537" type="curve" smooth="yes"/>
      <point x="84.5967" y="286.562" type="line" smooth="yes"/>
      <point x="83.9697" y="287.188"/>
      <point x="83.582" y="288.054"/>
      <point x="83.582" y="289.009" type="curve" smooth="yes"/>
      <point x="83.582" y="289.015"/>
      <point x="83.583" y="289.021"/>
      <point x="83.583" y="289.027" type="curve" smooth="yes"/>
      <point x="83.8271" y="335.177" type="line" smooth="yes"/>
      <point x="83.833" y="336.238"/>
      <point x="84.3154" y="337.187"/>
      <point x="85.0732" y="337.817" type="curve"/>
    </contour>
  </outline>
</glyph>
<glyph name="d" format="2">
  <advance width="0"/>
  <unicode hex="0064"/>
  <outline>
    <contour>
      <point x="103.865" y="-86.0117" type="line"/>
      <point x="103.865" y="-71.6826"/>
      <point x="119.376" y="-60.0498"/>
      <point x="138.48" y="-60.0498" type="curve" smooth="yes"/>
      <point x="159.965" y="-60.0566"/>
      <point x="177.404" y="-71.6875"/>
      <point x="177.404" y="-86.0117" type="curve"/>
    </contour>
  </outline>
</glyph>
<glyph name="e" format="2">
  <advance width="0"/>
  <unicode hex="0065"/>
  <outline>
    <contour>
      <point x="118.378" y="363.081" type="line"/>
      <point x="112.763" y="358.427" type="line" smooth="yes"/>
      <point x="112.162" y="357.927"/>
      <point x="111.388" y="357.625"/>
      <point x="110.546" y="357.625" type="curve" smooth="yes"/>
      <point x="95.0313" y="357.619" type="line" smooth="yes"/>
      <point x="94.0762" y="357.619"/>
      <point x="93.21" y="358.007"/>
      <point x="92.584" y="358.633" type="curve" smooth="yes"/>
      <point x="84.5703" y="366.619" type="line" smooth="yes"/>
      <point x="83.9434" y="367.246"/>
      <point x="83.5557" y="368.111"/>
      <point x="83.5557" y="369.067" type="curve" smooth="yes"/>
      <point x="83.5703" y="406.966" type="line" smooth="yes"/>
      <point x="83.5703" y="407.901"/>
      <point x="83.9424" y="408.752"/>
      <point x="84.5469" y="409.376" type="curve" smooth="yes"/>
      <point x="95.1465" y="420.35" type="line" smooth="yes"/>
      <point x="95.7764" y="420.999"/>
      <point x="96.6572" y="421.401"/>
      <point x="97.6318" y="421.401" type="curve" smooth="yes"/>
      <point x="110.378" y="421.389" type="line" smooth="yes"/>
      <point x="111.333" y="421.389"/>
      <point x="112.199" y="421.001"/>
      <point x="112.825" y="420.375" type="curve" smooth="yes"/>
      <point x="118.839" y="414.35" type="line" smooth="yes"/>
      <point x="119.466" y="413.724"/>
      <point x="119.854" y="412.858"/>
      <point x="119.854" y="411.902" type="curve" smooth="yes"/>
      <point x="119.854" y="411.896"/>
      <point x="119.854" y="411.891"/>
      <point x="119.854" y="411.884" type="curve" smooth="yes"/>
      <point x="119.608" y="365.734" type="line" smooth="yes"/>
      <point x="119.603" y="364.674"/>
      <point x="119.121" y="363.726"/>
      <point x="118.363" y="363.094" type="curve"/>
    </contour>
  </outline>
</glyph>
<glyph name="f" format="2">
  <advance width="0"/>
  <unicode hex="0066"/>
  <outline>
    <contour>
      <point x="116.132" y="84.8359" type="line"/>
      <point x="116.106" y="84.8252" type="line"/>
      <point x="116.695" y="85.2891"/>
      <point x="117.44" y="85.5674"/>
      <point x="118.248" y="85.5674" type="curve" smooth="yes"/>
      <point x="129.363" y="85.5674" type="line" smooth="yes"/>
      <point x="135.562" y="85.5469"/>
      <point x="140.689" y="78.1455"/>
      <point x="141.509" y="68.5811" type="curve" smooth="yes"/>
      <point x="141.63" y="67.1563"/>
      <point x="142.616" y="65.9736"/>
      <point x="143.94" y="65.5674" type="curve" smooth="yes"/>
      <point x="149.605" y="63.8213"/>
      <point x="153.901" y="55.8389"/>
      <point x="153.901" y="46.2666" type="curve" smooth="yes"/>
      <point x="153.901" y="46.2588" type="line"/>
      <point x="153.893" y="46.248" type="line" smooth="yes"/>
      <point x="153.893" y="36.7324"/>
      <point x="149.656" y="28.7871"/>
      <point x="144.04" y="26.9795" type="curve" smooth="yes"/>
      <point x="142.644" y="26.5332"/>
      <point x="141.632" y="25.2256"/>
      <point x="141.632" y="23.6826" type="curve" smooth="yes"/>
      <point x="141.632" y="11.875" type="line" smooth="yes"/>
      <point x="141.619" y="5.10156"/>
      <point x="132.817" y="-0.394531"/>
      <point x="121.979" y="-0.394531" type="curve" smooth="yes"/>
      <point x="113.744" y="-0.393555"/>
      <point x="107.059" y="3.10449"/>
      <point x="107.056" y="7.41309" type="curve" smooth="yes"/>
      <point x="107.043" y="76.001" type="line" smooth="yes"/>
      <point x="107.043" y="77.1045"/>
      <point x="107.558" y="78.0869"/>
      <point x="108.363" y="78.7207" type="curve" smooth="yes"/>
    </contour>
  </outline>
</glyph>
<glyph name="g" format="2">
  <advance width="0"/>
  <unicode hex="0067"/>
  <outline>
    <contour>
      <point x="279.902" y="357.635" type="curve" smooth="yes"/>
      <point x="279.902" y="357.646"/>
      <point x="279.901" y="357.655"/>
      <point x="279.901" y="357.666" type="curve" smooth="yes"/>
      <point x="279.901" y="361.981"/>
      <point x="283.844" y="365.485"/>
      <point x="288.698" y="365.485" type="curve" smooth="yes"/>
      <point x="288.794" y="365.485"/>
      <point x="288.884" y="365.483"/>
      <point x="288.979" y="365.48" type="curve" smooth="yes"/>
      <point x="368.094" y="365.48" type="line"/>
      <point x="368.402" y="365.48" type="line" smooth="yes"/>
      <point x="372.857" y="362.012"/>
      <point x="375.461" y="357.827"/>
      <point x="375.461" y="353.324" type="curve" smooth="yes"/>
      <point x="375.461" y="341.345"/>
      <point x="357.032" y="331.618"/>
      <point x="334.334" y="331.618" type="curve" smooth="yes"/>
      <point x="333.512" y="331.618"/>
      <point x="332.751" y="331.609"/>
      <point x="331.94" y="331.635" type="curve" smooth="yes"/>
      <point x="331.367" y="331.625"/>
      <point x="330.791" y="331.621"/>
      <point x="330.214" y="331.621" type="curve" smooth="yes"/>
      <point x="302.338" y="331.621"/>
      <point x="279.706" y="342.397"/>
      <point x="279.706" y="355.672" type="curve" smooth="yes"/>
      <point x="279.706" y="356.341"/>
      <point x="279.789" y="356.979"/>
    </contour>
  </outline>
</glyph>
<glyph name="h" format="2">
  <advance width="0"/>
  <unicode hex="0068"/>
  <outline>
    <contour>
      <point x="286.961" y="266.492" type="curve" smooth="yes"/>
      <point x="362.461" y="266.492" type="line"/>
      <point x="362.467" y="266.492" type="line" smooth="yes"/>
      <point x="372.522" y="266.492"/>
      <point x="380.688" y="259.496"/>
      <point x="380.691" y="250.877" type="curve" smooth="yes"/>
      <point x="380.68" y="237.95"/>
      <point x="355.023" y="227.456"/>
      <point x="323.422" y="227.454" type="curve" smooth="yes"/>
      <point x="294.684" y="227.454"/>
      <point x="271.346" y="239.123"/>
      <point x="271.346" y="253.492" type="curve" smooth="yes"/>
      <point x="271.357" y="260.667"/>
      <point x="278.35" y="266.489"/>
    </contour>
  </outline>
</glyph>
<glyph name="p" format="2">
  <advance width="0"/>
  <unicode hex="0070"/>
  <outline>
    <contour>
      <point x="215.754" y="555.488" type="curve" smooth="yes"/>
      <point x="215.754" y="565.015"/>
      <point x="223.477" y="572.737"/>
      <point x="233.003" y="572.737" type="curve" smooth="yes"/>
      <point x="242.529" y="572.737"/>
      <point x="250.251" y="565.015"/>
      <point x="250.251" y="555.488" type="curve" smooth="yes"/>
      <point x="250.251" y="545.962"/>
      <point x="242.529" y="538.24"/>
      <point x="233.003" y="538.24" type="curve" smooth="yes"/>
      <point x="223.477" y="538.24"/>
      <point x="215.754" y="545.962"/>
    </contour>
  </outline>
</glyph>
<glyph name="q" format="2">
  <advance width="0"/>
  <unicode hex="0071"/>
  <outline>
    <contour>
      <point x="303.299" y="666.136" type="curve" smooth="yes"/>
      <point x="295.855" y="693.914"/>
      <point x="298.829" y="718.847"/>
      <point x="309.94" y="721.823" type="curve" smooth="yes"/>
      <point x="321.052" y="724.801"/>
      <point x="336.093" y="704.695"/>
      <point x="343.536" y="676.918" type="curve" smooth="yes"/>
      <point x="350.979" y="649.14"/>
      <point x="348.006" y="624.207"/>
      <point x="336.895" y="621.229" type="curve" smooth="yes"/>
      <point x="325.783" y="618.253"/>
      <point x="310.741" y="638.357"/>
    </contour>
  </outline>
</glyph>
<glyph name="r" format="2">
  <advance width="0"/>
  <unicode hex="0072"/>
  <outline>
    <contour>
      <point x="279.083" y="572.409" type="curve" smooth="yes"/>
      <point x="271.64" y="600.188"/>
      <point x="274.613" y="625.119"/>
      <point x="285.725" y="628.097" type="curve" smooth="yes"/>
      <point x="296.836" y="631.074"/>
      <point x="311.877" y="610.969"/>
      <point x="319.32" y="583.19" type="curve" smooth="yes"/>
      <point x="326.764" y="555.412"/>
      <point x="323.79" y="530.48"/>
      <point x="312.679" y="527.503" type="curve" smooth="yes"/>
      <point x="301.567" y="524.525"/>
      <point x="286.525" y="544.631"/>
    </contour>
  </outline>
</glyph>
<glyph name="s" format="2">
  <advance width="0"/>
  <unicode hex="0073"/>
  <outline>
    <contour>
      <point x="126.933" y="558.852" type="curve"/>
      <point x="119.871" y="563.797"/>
      <point x="110.34" y="573.396"/>
      <point x="96.6445" y="571.289" type="curve" smooth="yes"/>
      <point x="87.2646" y="569.845"/>
      <point x="79.1602" y="561.628"/>
      <point x="74.2764" y="556.808" type="curve"/>
      <point x="80.7402" y="568.699"/>
      <point x="102.48" y="596.733"/>
      <point x="115.52" y="596.733" type="curve" smooth="yes"/>
      <point x="123.791" y="596.733"/>
      <point x="128.144" y="581.07"/>
      <point x="128.144" y="568.206" type="curve" smooth="yes"/>
      <point x="128.144" y="563.83"/>
      <point x="127.494" y="560.247"/>
    </contour>
    <contour>
      <point x="68.4609" y="552.57" type="curve" smooth="yes"/>
      <point x="68.4609" y="551.062"/>
      <point x="69.4082" y="549.597"/>
      <point x="70.9053" y="549.597" type="curve" smooth="yes"/>
      <point x="73.2998" y="549.597"/>
      <point x="74.8398" y="551.961"/>
      <point x="76.9766" y="554.07" type="curve" smooth="yes"/>
      <point x="82.5146" y="559.535"/>
      <point x="90.3428" y="567.71"/>
      <point x="100.145" y="567.71" type="curve" smooth="yes"/>
      <point x="110.781" y="567.71"/>
      <point x="118.607" y="559.667"/>
      <point x="125.481" y="555.189" type="curve" smooth="yes"/>
      <point x="125.946" y="554.887"/>
      <point x="126.531" y="554.656"/>
      <point x="127.195" y="554.656" type="curve" smooth="yes"/>
      <point x="131.803" y="554.656"/>
      <point x="131.989" y="562.568"/>
      <point x="131.989" y="568.206" type="curve" smooth="yes"/>
      <point x="131.989" y="580.25"/>
      <point x="128.516" y="600.579"/>
      <point x="115.52" y="600.579" type="curve" smooth="yes"/>
      <point x="96.8555" y="600.579"/>
      <point x="68.4609" y="561.107"/>
    </contour>
    <contour>
      <point x="175.258" y="679.911" type="curve"/>
      <point x="183.704" y="681.305"/>
      <point x="192.962" y="700.953"/>
      <point x="199.771" y="725.216" type="curve"/>
      <point x="206.574" y="700.957"/>
      <point x="215.831" y="681.29"/>
      <point x="224.272" y="679.88" type="curve"/>
      <point x="222.57" y="673.113"/>
      <point x="212.842" y="667"/>
      <point x="199.76" y="667" type="curve" smooth="yes"/>
      <point x="186.68" y="667"/>
      <point x="176.938" y="673.133"/>
    </contour>
    <contour>
      <point x="171.148" y="681.96" type="line" smooth="yes"/>
      <point x="171.17" y="670.854"/>
      <point x="184.729" y="663.155"/>
      <point x="199.76" y="663.153" type="curve" smooth="yes"/>
      <point x="214.802" y="663.153"/>
      <point x="228.361" y="670.856"/>
      <point x="228.384" y="681.96" type="curve" smooth="yes"/>
      <point x="228.384" y="684.873" type="line"/>
      <point x="227.454" y="684.478"/>
      <point x="226.354" y="683.645"/>
      <point x="225.233" y="683.645" type="curve" smooth="yes"/>
      <point x="220.502" y="683.645"/>
      <point x="209.056" y="703.759"/>
      <point x="201.636" y="733.164" type="curve"/>
      <point x="197.906" y="733.164" type="line"/>
      <point x="190.519" y="703.899"/>
      <point x="179.037" y="683.173"/>
      <point x="173.77" y="683.759" type="curve" smooth="yes"/>
      <point x="173.77" y="683.945"/>
      <point x="171.414" y="684.761"/>
      <point x="171.148" y="684.873" type="curve"/>
    </contour>
    <contour>
      <point x="163.653" y="614.254" type="curve" smooth="yes"/>
      <point x="163.653" y="634.761"/>
      <point x="180.275" y="651.386"/>
      <point x="200.785" y="651.386" type="curve" smooth="yes"/>
      <point x="221.291" y="651.386"/>
      <point x="237.913" y="634.761"/>
      <point x="237.913" y="614.254" type="curve" smooth="yes"/>
      <point x="237.913" y="593.748"/>
      <point x="221.291" y="577.122"/>
      <point x="200.785" y="577.122" type="curve" smooth="yes"/>
      <point x="180.275" y="577.122"/>
      <point x="163.653" y="593.748"/>
    </contour>
    <contour>
      <point x="159.807" y="614.254" type="curve" smooth="yes"/>
      <point x="159.807" y="591.626"/>
      <point x="178.153" y="573.276"/>
      <point x="200.785" y="573.276" type="curve" smooth="yes"/>
      <point x="223.413" y="573.276"/>
      <point x="241.76" y="591.626"/>
      <point x="241.76" y="614.254" type="curve" smooth="yes"/>
      <point x="241.76" y="636.882"/>
      <point x="223.413" y="655.232"/>
      <point x="200.785" y="655.232" type="curve" smooth="yes"/>
      <point x="178.153" y="655.232"/>
      <point x="159.807" y="636.882"/>
    </contour>
    <contour>
      <point x="217.676" y="555.487" type="curve" smooth="yes"/>
      <point x="217.676" y="563.956"/>
      <point x="224.536" y="570.815"/>
      <point x="233.004" y="570.815" type="curve" smooth="yes"/>
      <point x="241.468" y="570.815"/>
      <point x="248.328" y="563.956"/>
      <point x="248.328" y="555.487" type="curve" smooth="yes"/>
      <point x="248.328" y="547.023"/>
      <point x="241.469" y="540.163"/>
      <point x="233.004" y="540.163" type="curve" smooth="yes"/>
      <point x="224.535" y="540.163"/>
      <point x="217.676" y="547.023"/>
    </contour>
    <contour>
      <point x="213.83" y="555.487" type="curve" smooth="yes"/>
      <point x="213.83" y="544.901"/>
      <point x="222.414" y="536.316"/>
      <point x="233.004" y="536.316" type="curve" smooth="yes"/>
      <point x="243.59" y="536.316"/>
      <point x="252.175" y="544.901"/>
      <point x="252.175" y="555.487" type="curve" smooth="yes"/>
      <point x="252.175" y="566.077"/>
      <point x="243.591" y="574.662"/>
      <point x="233.004" y="574.662" type="curve" smooth="yes"/>
      <point x="222.414" y="574.662"/>
      <point x="213.83" y="566.077"/>
    </contour>
    <contour>
      <point x="163.653" y="493.003" type="curve" smooth="yes"/>
      <point x="163.653" y="513.513"/>
      <point x="180.275" y="530.135"/>
      <point x="200.785" y="530.135" type="curve" smooth="yes"/>
      <point x="221.291" y="530.135"/>
      <point x="237.913" y="513.513"/>
      <point x="237.913" y="493.003" type="curve" smooth="yes"/>
      <point x="237.913" y="472.496"/>
      <point x="221.291" y="455.874"/>
      <point x="200.785" y="455.874" type="curve" smooth="yes"/>
      <point x="180.275" y="455.874"/>
      <point x="163.653" y="472.496"/>
    </contour>
    <contour>
      <point x="159.807" y="493.003" type="curve" smooth="yes"/>
      <point x="159.807" y="470.375"/>
      <point x="178.153" y="452.028"/>
      <point x="200.785" y="452.028" type="curve" smooth="yes"/>
      <point x="223.413" y="452.028"/>
      <point x="241.76" y="470.375"/>
      <point x="241.76" y="493.003" type="curve" smooth="yes"/>
      <point x="241.76" y="515.634"/>
      <point x="223.413" y="533.98"/>
      <point x="200.785" y="533.98" type="curve" smooth="yes"/>
      <point x="178.153" y="533.98"/>
      <point x="159.807" y="515.634"/>
    </contour>
    <contour>
      <point x="163.653" y="387.74" type="curve" smooth="yes"/>
      <point x="163.653" y="408.25"/>
      <point x="180.275" y="424.872"/>
      <point x="200.785" y="424.872" type="curve" smooth="yes"/>
      <point x="221.291" y="424.872"/>
      <point x="237.913" y="408.25"/>
      <point x="237.913" y="387.74" type="curve" smooth="yes"/>
      <point x="237.913" y="367.234"/>
      <point x="221.291" y="350.612"/>
      <point x="200.785" y="350.612" type="curve" smooth="yes"/>
      <point x="180.275" y="350.612"/>
      <point x="163.653" y="367.234"/>
    </contour>
    <contour>
      <point x="159.807" y="387.74" type="curve" smooth="yes"/>
      <point x="159.807" y="365.112"/>
      <point x="178.153" y="346.766"/>
      <point x="200.785" y="346.766" type="curve" smooth="yes"/>
      <point x="223.413" y="346.766"/>
      <point x="241.76" y="365.112"/>
      <point x="241.76" y="387.74" type="curve" smooth="yes"/>
      <point x="241.76" y="410.372"/>
      <point x="223.413" y="428.719"/>
      <point x="200.785" y="428.719" type="curve" smooth="yes"/>
      <point x="178.153" y="428.719"/>
      <point x="159.807" y="410.372"/>
    </contour>
    <contour>
      <point x="166.936" y="306.366" type="line"/>
      <point x="166.936" y="302.521" type="line"/>
      <point x="239.821" y="302.521" type="line"/>
      <point x="239.821" y="306.366" type="line"/>
    </contour>
    <contour>
      <point x="163.653" y="221.112" type="curve" smooth="yes"/>
      <point x="163.653" y="241.622"/>
      <point x="180.275" y="258.244"/>
      <point x="200.785" y="258.244" type="curve" smooth="yes"/>
      <point x="221.291" y="258.244"/>
      <point x="237.913" y="241.622"/>
      <point x="237.913" y="221.112" type="curve" smooth="yes"/>
      <point x="237.913" y="200.606"/>
      <point x="221.291" y="183.984"/>
      <point x="200.785" y="183.984" type="curve" smooth="yes"/>
      <point x="180.275" y="183.984"/>
      <point x="163.653" y="200.606"/>
    </contour>
    <contour>
      <point x="159.807" y="221.112" type="curve" smooth="yes"/>
      <point x="159.807" y="198.484"/>
      <point x="178.153" y="180.139"/>
      <point x="200.785" y="180.139" type="curve" smooth="yes"/>
      <point x="223.413" y="180.139"/>
      <point x="241.76" y="198.484"/>
      <point x="241.76" y="221.112" type="curve" smooth="yes"/>
      <point x="241.76" y="243.744"/>
      <point x="223.413" y="262.091"/>
      <point x="200.785" y="262.091" type="curve" smooth="yes"/>
      <point x="178.153" y="262.091"/>
      <point x="159.807" y="243.744"/>
    </contour>
    <contour>
      <point x="163.653" y="106.558" type="curve" smooth="yes"/>
      <point x="163.653" y="127.064"/>
      <point x="180.275" y="143.687"/>
      <point x="200.785" y="143.687" type="curve" smooth="yes"/>
      <point x="221.291" y="143.687"/>
      <point x="237.913" y="127.064"/>
      <point x="237.913" y="106.558" type="curve" smooth="yes"/>
      <point x="237.913" y="86.0479"/>
      <point x="221.291" y="69.4258"/>
      <point x="200.785" y="69.4258" type="curve" smooth="yes"/>
      <point x="180.275" y="69.4258"/>
      <point x="163.653" y="86.0479"/>
    </contour>
    <contour>
      <point x="159.807" y="106.558" type="curve" smooth="yes"/>
      <point x="159.807" y="83.9268"/>
      <point x="178.153" y="65.5801"/>
      <point x="200.785" y="65.5801" type="curve" smooth="yes"/>
      <point x="223.413" y="65.5801"/>
      <point x="241.76" y="83.9268"/>
      <point x="241.76" y="106.558" type="curve" smooth="yes"/>
      <point x="241.76" y="129.186"/>
      <point x="223.413" y="147.532"/>
      <point x="200.785" y="147.532" type="curve" smooth="yes"/>
      <point x="178.153" y="147.532"/>
      <point x="159.807" y="129.186"/>
    </contour>
    <contour>
      <point x="163.653" y="-8" type="curve" smooth="yes"/>
      <point x="163.653" y="12.5059"/>
      <point x="180.275" y="29.1318"/>
      <point x="200.785" y="29.1318" type="curve" smooth="yes"/>
      <point x="221.291" y="29.1318"/>
      <point x="237.913" y="12.5059"/>
      <point x="237.913" y="-8" type="curve" smooth="yes"/>
      <point x="237.913" y="-28.5068"/>
      <point x="221.291" y="-45.1318"/>
      <point x="200.785" y="-45.1318" type="curve" smooth="yes"/>
      <point x="180.275" y="-45.1318"/>
      <point x="163.653" y="-28.5068"/>
    </contour>
    <contour>
      <point x="159.807" y="-8" type="curve" smooth="yes"/>
      <point x="159.807" y="-30.6279"/>
      <point x="178.153" y="-48.9785"/>
      <point x="200.785" y="-48.9785" type="curve" smooth="yes"/>
      <point x="223.413" y="-48.9785"/>
      <point x="241.76" y="-30.6279"/>
      <point x="241.76" y="-8" type="curve" smooth="yes"/>
      <point x="241.76" y="14.627"/>
      <point x="223.413" y="32.9775"/>
      <point x="200.785" y="32.9775" type="curve" smooth="yes"/>
      <point x="178.153" y="32.9775"/>
      <point x="159.807" y="14.6279"/>
    </contour>
    <contour>
      <point x="138.48" y="-61.9746" type="curve" smooth="yes"/>
      <point x="158.489" y="-61.9746"/>
      <point x="173.841" y="-72.2578"/>
      <point x="175.357" y="-84.0898" type="curve"/>
      <point x="105.895" y="-84.0898" type="line"/>
      <point x="107.229" y="-72.1055"/>
      <point x="120.898" y="-61.9746"/>
    </contour>
    <contour>
      <point x="101.941" y="-87.9355" type="line"/>
      <point x="179.327" y="-87.9355" type="line"/>
      <point x="179.327" y="-86.0127" type="line" smooth="yes"/>
      <point x="179.327" y="-69.9795"/>
      <point x="160.363" y="-58.1318"/>
      <point x="138.48" y="-58.1279" type="curve" smooth="yes"/>
      <point x="118.789" y="-58.1279"/>
      <point x="101.941" y="-70.1572"/>
      <point x="101.941" y="-86.0127" type="curve" smooth="yes"/>
    </contour>
    <contour>
      <point x="142.77" y="-122.998" type="curve" smooth="yes"/>
      <point x="122.761" y="-122.998"/>
      <point x="107.409" y="-112.714"/>
      <point x="105.893" y="-100.887" type="curve"/>
      <point x="175.355" y="-100.887" type="line"/>
      <point x="174.021" y="-112.867"/>
      <point x="160.351" y="-122.998"/>
    </contour>
    <contour>
      <point x="179.309" y="-97.04" type="line"/>
      <point x="101.923" y="-97.04" type="line"/>
      <point x="101.923" y="-98.9629" type="line" smooth="yes"/>
      <point x="101.923" y="-114.993"/>
      <point x="120.887" y="-126.841"/>
      <point x="142.77" y="-126.844" type="curve" smooth="yes"/>
      <point x="162.461" y="-126.844"/>
      <point x="179.309" y="-114.815"/>
      <point x="179.309" y="-98.9629" type="curve" smooth="yes"/>
    </contour>
    <contour>
      <point x="305.154" y="666.634" type="curve" smooth="yes"/>
      <point x="297.619" y="694.756"/>
      <point x="301.644" y="717.609"/>
      <point x="310.439" y="719.966" type="curve" smooth="yes"/>
      <point x="319.23" y="722.321"/>
      <point x="334.143" y="704.542"/>
      <point x="341.678" y="676.421" type="curve" smooth="yes"/>
      <point x="349.214" y="648.296"/>
      <point x="345.188" y="625.442"/>
      <point x="336.397" y="623.087" type="curve" smooth="yes"/>
      <point x="327.603" y="620.729"/>
      <point x="312.69" y="638.509"/>
    </contour>
    <contour>
      <point x="301.439" y="665.639" type="curve" smooth="yes"/>
      <point x="308.79" y="638.204"/>
      <point x="323.963" y="615.772"/>
      <point x="337.394" y="619.371" type="curve" smooth="yes"/>
      <point x="350.82" y="622.969"/>
      <point x="352.744" y="649.981"/>
      <point x="345.393" y="677.416" type="curve" smooth="yes"/>
      <point x="338.043" y="704.847"/>
      <point x="322.87" y="727.278"/>
      <point x="309.443" y="723.681" type="curve" smooth="yes"/>
      <point x="296.014" y="720.082"/>
      <point x="294.089" y="693.069"/>
    </contour>
    <contour>
      <point x="364.253" y="593.737" type="curve" smooth="yes"/>
      <point x="356.718" y="621.859"/>
      <point x="360.742" y="644.713"/>
      <point x="369.537" y="647.069" type="curve" smooth="yes"/>
      <point x="378.332" y="649.426"/>
      <point x="393.24" y="631.646"/>
      <point x="400.775" y="603.524" type="curve" smooth="yes"/>
      <point x="408.313" y="575.398"/>
      <point x="404.291" y="552.547"/>
      <point x="395.496" y="550.189" type="curve" smooth="yes"/>
      <point x="386.701" y="547.833"/>
      <point x="371.789" y="565.612"/>
    </contour>
    <contour>
      <point x="360.537" y="592.742" type="curve" smooth="yes"/>
      <point x="367.889" y="565.308"/>
      <point x="383.061" y="542.876"/>
      <point x="396.491" y="546.475" type="curve" smooth="yes"/>
      <point x="409.922" y="550.073"/>
      <point x="411.842" y="577.085"/>
      <point x="404.491" y="604.52" type="curve" smooth="yes"/>
      <point x="397.141" y="631.95"/>
      <point x="381.972" y="654.383"/>
      <point x="368.542" y="650.784" type="curve" smooth="yes"/>
      <point x="355.111" y="647.186"/>
      <point x="353.188" y="620.173"/>
    </contour>
    <contour>
      <point x="117.135" y="364.572" type="curve" smooth="yes"/>
      <point x="115.267" y="363.021"/>
      <point x="113.402" y="361.465"/>
      <point x="111.537" y="359.91" type="curve" smooth="yes"/>
      <point x="111.272" y="359.688"/>
      <point x="110.922" y="359.548"/>
      <point x="110.547" y="359.548" type="curve" smooth="yes"/>
      <point x="95.0303" y="359.548" type="line" smooth="yes"/>
      <point x="94.6055" y="359.548"/>
      <point x="94.2197" y="359.718"/>
      <point x="93.9492" y="359.99" type="curve" smooth="yes"/>
      <point x="85.9277" y="367.982" type="line" smooth="yes"/>
      <point x="85.6484" y="368.262"/>
      <point x="85.4795" y="368.641"/>
      <point x="85.4795" y="369.069" type="curve" smooth="yes"/>
      <point x="85.4795" y="406.967" type="line" smooth="yes"/>
      <point x="85.4795" y="407.382"/>
      <point x="85.6592" y="407.759"/>
      <point x="85.9277" y="408.036" type="curve" smooth="yes"/>
      <point x="96.5303" y="419.015" type="line" smooth="yes"/>
      <point x="96.8125" y="419.305"/>
      <point x="97.1963" y="419.479"/>
      <point x="97.6338" y="419.479" type="curve" smooth="yes"/>
      <point x="110.376" y="419.479" type="line" smooth="yes"/>
      <point x="110.795" y="419.479"/>
      <point x="111.189" y="419.293"/>
      <point x="111.472" y="419.013" type="curve" smooth="yes"/>
      <point x="117.479" y="412.99" type="line" smooth="yes"/>
      <point x="117.751" y="412.72"/>
      <point x="117.932" y="412.328"/>
      <point x="117.932" y="411.902" type="curve" smooth="yes"/>
      <point x="117.688" y="365.744" type="line" smooth="yes"/>
      <point x="117.684" y="365.268"/>
      <point x="117.467" y="364.85"/>
    </contour>
    <contour>
      <point x="120.201" y="415.706" type="curve" smooth="yes"/>
      <point x="114.183" y="421.74" type="line" smooth="yes"/>
      <point x="113.21" y="422.707"/>
      <point x="111.868" y="423.313"/>
      <point x="110.38" y="423.313" type="curve" smooth="yes"/>
      <point x="97.6338" y="423.313" type="line" smooth="yes"/>
      <point x="96.1182" y="423.313"/>
      <point x="94.7441" y="422.694"/>
      <point x="93.7637" y="421.686" type="curve" smooth="yes"/>
      <point x="83.167" y="410.714" type="line" smooth="yes"/>
      <point x="82.2275" y="409.744"/>
      <point x="81.6484" y="408.424"/>
      <point x="81.6484" y="406.968" type="curve" smooth="yes"/>
      <point x="81.6484" y="369.069" type="line" smooth="yes"/>
      <point x="81.6484" y="367.583"/>
      <point x="82.2383" y="366.233"/>
      <point x="83.2129" y="365.258" type="curve" smooth="yes"/>
      <point x="91.2217" y="357.279" type="line" smooth="yes"/>
      <point x="92.1982" y="356.298"/>
      <point x="93.5488" y="355.698"/>
      <point x="95.0313" y="355.698" type="curve" smooth="yes"/>
      <point x="110.547" y="355.698" type="line" smooth="yes"/>
      <point x="111.854" y="355.698"/>
      <point x="113.052" y="356.162"/>
      <point x="113.989" y="356.947" type="curve" smooth="yes"/>
      <point x="116.486" y="359.018"/>
      <point x="118.984" y="361.088"/>
      <point x="121.482" y="363.157" type="curve"/>
      <point x="120.816" y="363.657"/>
      <point x="121.526" y="364.697"/>
      <point x="121.533" y="365.724" type="curve" smooth="yes"/>
      <point x="121.777" y="411.884" type="line" smooth="yes"/>
      <point x="121.777" y="413.386"/>
      <point x="121.184" y="414.729"/>
    </contour>
    <contour>
      <point x="280.938" y="572.907" type="curve" smooth="yes"/>
      <point x="273.403" y="601.028"/>
      <point x="277.429" y="623.882"/>
      <point x="286.224" y="626.238" type="curve" smooth="yes"/>
      <point x="295.015" y="628.594"/>
      <point x="309.927" y="610.814"/>
      <point x="317.462" y="582.693" type="curve" smooth="yes"/>
      <point x="324.998" y="554.568"/>
      <point x="320.974" y="531.715"/>
      <point x="312.183" y="529.359" type="curve" smooth="yes"/>
      <point x="303.388" y="527.003"/>
      <point x="288.475" y="544.782"/>
    </contour>
    <contour>
      <point x="277.224" y="571.911" type="curve" smooth="yes"/>
      <point x="284.575" y="544.477"/>
      <point x="299.747" y="522.046"/>
      <point x="313.178" y="525.645" type="curve" smooth="yes"/>
      <point x="326.604" y="529.242"/>
      <point x="328.528" y="556.255"/>
      <point x="321.178" y="583.688" type="curve" smooth="yes"/>
      <point x="313.827" y="611.12"/>
      <point x="298.655" y="633.552"/>
      <point x="285.229" y="629.953" type="curve" smooth="yes"/>
      <point x="271.798" y="626.354"/>
      <point x="269.874" y="599.343"/>
    </contour>
    <contour>
      <point x="144.979" y="185.755" type="line" smooth="yes"/>
      <point x="145.975" y="185.939"/>
      <point x="146.789" y="185.158"/>
      <point x="146.789" y="184.243" type="curve" smooth="yes"/>
      <point x="146.789" y="126.725" type="line" smooth="yes"/>
      <point x="146.789" y="126.478"/>
      <point x="146.727" y="126.242"/>
      <point x="146.622" y="126.035" type="curve" smooth="yes"/>
      <point x="135.336" y="103.469" type="line" smooth="yes"/>
      <point x="135.011" y="102.821"/>
      <point x="134.248" y="102.416"/>
      <point x="133.432" y="102.713" type="curve" smooth="yes"/>
      <point x="111.021" y="110.878" type="line" smooth="yes"/>
      <point x="110.287" y="111.146"/>
      <point x="109.768" y="111.992"/>
      <point x="110.109" y="112.871" type="curve" smooth="yes"/>
      <point x="121.62" y="142.844" type="line" smooth="yes"/>
      <point x="121.854" y="143.445"/>
      <point x="121.98" y="144.092"/>
      <point x="121.98" y="144.775" type="curve" smooth="yes"/>
      <point x="121.98" y="180.304" type="line" smooth="yes"/>
      <point x="121.98" y="180.971"/>
      <point x="122.41" y="181.541"/>
      <point x="123.247" y="181.796" type="curve" smooth="yes"/>
    </contour>
    <contour>
      <point x="118.134" y="180.304" type="curve" smooth="yes"/>
      <point x="118.134" y="144.775" type="line" smooth="yes"/>
      <point x="118.134" y="144.588"/>
      <point x="118.095" y="144.393"/>
      <point x="118.028" y="144.221" type="curve" smooth="yes"/>
      <point x="106.522" y="114.262" type="line" smooth="yes"/>
      <point x="105.324" y="111.176"/>
      <point x="107.146" y="108.196"/>
      <point x="109.705" y="107.264" type="curve" smooth="yes"/>
      <point x="132.118" y="99.0977" type="line" smooth="yes"/>
      <point x="134.958" y="98.0645"/>
      <point x="137.668" y="99.54"/>
      <point x="138.778" y="101.752" type="curve" smooth="yes"/>
      <point x="150.064" y="124.318" type="line" smooth="yes"/>
      <point x="150.427" y="125.042"/>
      <point x="150.631" y="125.858"/>
      <point x="150.631" y="126.724" type="curve" smooth="yes"/>
      <point x="150.631" y="184.243" type="line" smooth="yes"/>
      <point x="150.631" y="187.438"/>
      <point x="147.788" y="190.187"/>
      <point x="144.286" y="189.538" type="curve" smooth="yes"/>
      <point x="137.041" y="188.227"/>
      <point x="129.804" y="186.881"/>
      <point x="122.551" y="185.599" type="curve" smooth="yes"/>
      <point x="120.045" y="185.143"/>
      <point x="118.134" y="182.947"/>
    </contour>
    <contour>
      <point x="86.3018" y="258.234" type="curve" smooth="yes"/>
      <point x="88.1709" y="259.786"/>
      <point x="90.0342" y="261.345"/>
      <point x="91.8994" y="262.9" type="curve" smooth="yes"/>
      <point x="92.166" y="263.122"/>
      <point x="92.5146" y="263.259"/>
      <point x="92.8896" y="263.259" type="curve" smooth="yes"/>
      <point x="108.406" y="263.259" type="line" smooth="yes"/>
      <point x="108.83" y="263.259"/>
      <point x="109.212" y="263.092"/>
      <point x="109.491" y="262.812" type="curve" smooth="yes"/>
      <point x="117.51" y="254.824" type="line" smooth="yes"/>
      <point x="117.789" y="254.544"/>
      <point x="117.957" y="254.164"/>
      <point x="117.957" y="253.741" type="curve" smooth="yes"/>
      <point x="117.957" y="215.84" type="line" smooth="yes"/>
      <point x="117.957" y="215.425"/>
      <point x="117.777" y="215.048"/>
      <point x="117.509" y="214.77" type="curve" smooth="yes"/>
      <point x="106.906" y="203.792" type="line" smooth="yes"/>
      <point x="106.62" y="203.499"/>
      <point x="106.235" y="203.328"/>
      <point x="105.803" y="203.328" type="curve" smooth="yes"/>
      <point x="93.0615" y="203.328" type="line" smooth="yes"/>
      <point x="92.6318" y="203.328"/>
      <point x="92.249" y="203.514"/>
      <point x="91.9697" y="203.793" type="curve" smooth="yes"/>
      <point x="85.957" y="209.816" type="line" smooth="yes"/>
      <point x="85.6777" y="210.097"/>
      <point x="85.5059" y="210.48"/>
      <point x="85.5059" y="210.903" type="curve" smooth="yes"/>
      <point x="85.75" y="257.063" type="line" smooth="yes"/>
      <point x="85.7529" y="257.543"/>
      <point x="85.9678" y="257.955"/>
    </contour>
    <contour>
      <point x="82.2061" y="259.861" type="curve"/>
      <point x="82.6719" y="259.396"/>
      <point x="81.9102" y="258.002"/>
      <point x="81.9033" y="257.083" type="curve" smooth="yes"/>
      <point x="81.6592" y="210.923" type="line" smooth="yes"/>
      <point x="81.6592" y="209.419"/>
      <point x="82.2607" y="208.075"/>
      <point x="83.2354" y="207.101" type="curve" smooth="yes"/>
      <point x="89.25" y="201.074" type="line" smooth="yes"/>
      <point x="90.2256" y="200.1"/>
      <point x="91.5703" y="199.497"/>
      <point x="93.0566" y="199.497" type="curve" smooth="yes"/>
      <point x="105.803" y="199.497" type="line" smooth="yes"/>
      <point x="107.324" y="199.497"/>
      <point x="108.697" y="200.122"/>
      <point x="109.673" y="201.121" type="curve" smooth="yes"/>
      <point x="120.27" y="212.093" type="line" smooth="yes"/>
      <point x="121.21" y="213.063"/>
      <point x="121.789" y="214.383"/>
      <point x="121.789" y="215.838" type="curve" smooth="yes"/>
      <point x="121.789" y="253.741" type="line" smooth="yes"/>
      <point x="121.789" y="255.226"/>
      <point x="121.198" y="256.573"/>
      <point x="120.224" y="257.548" type="curve" smooth="yes"/>
      <point x="112.211" y="265.531" type="line" smooth="yes"/>
      <point x="111.236" y="266.506"/>
      <point x="109.89" y="267.108"/>
      <point x="108.405" y="267.108" type="curve" smooth="yes"/>
      <point x="92.8896" y="267.108" type="line" smooth="yes"/>
      <point x="91.582" y="267.108"/>
      <point x="90.3828" y="266.641"/>
      <point x="89.4482" y="265.863" type="curve" smooth="yes"/>
      <point x="87.0342" y="263.862"/>
      <point x="84.6201" y="261.862"/>
    </contour>
    <contour>
      <point x="86.3018" y="336.34" type="curve" smooth="yes"/>
      <point x="88.1699" y="337.893"/>
      <point x="90.0342" y="339.448"/>
      <point x="91.8994" y="341.003" type="curve" smooth="yes"/>
      <point x="92.1709" y="341.229"/>
      <point x="92.5215" y="341.365"/>
      <point x="92.8896" y="341.365" type="curve" smooth="yes"/>
      <point x="108.406" y="341.365" type="line" smooth="yes"/>
      <point x="108.83" y="341.365"/>
      <point x="109.212" y="341.198"/>
      <point x="109.491" y="340.918" type="curve" smooth="yes"/>
      <point x="117.51" y="332.931" type="line" smooth="yes"/>
      <point x="117.787" y="332.653"/>
      <point x="117.957" y="332.269"/>
      <point x="117.957" y="331.844" type="curve" smooth="yes"/>
      <point x="117.957" y="293.946" type="line" smooth="yes"/>
      <point x="117.957" y="293.529"/>
      <point x="117.775" y="293.147"/>
      <point x="117.509" y="292.872" type="curve" smooth="yes"/>
      <point x="106.906" y="281.898" type="line" smooth="yes"/>
      <point x="106.625" y="281.608"/>
      <point x="106.24" y="281.434"/>
      <point x="105.803" y="281.434" type="curve" smooth="yes"/>
      <point x="93.0605" y="281.434" type="line" smooth="yes"/>
      <point x="92.6318" y="281.434"/>
      <point x="92.249" y="281.616"/>
      <point x="91.9697" y="281.896" type="curve" smooth="yes"/>
      <point x="85.957" y="287.919" type="line" smooth="yes"/>
      <point x="85.6777" y="288.198"/>
      <point x="85.5059" y="288.581"/>
      <point x="85.5059" y="289.01" type="curve" smooth="yes"/>
      <point x="85.75" y="335.165" type="line" smooth="yes"/>
      <point x="85.7529" y="335.646"/>
      <point x="85.9697" y="336.063"/>
    </contour>
    <contour>
      <point x="83.2354" y="285.203" type="curve" smooth="yes"/>
      <point x="89.25" y="279.177" type="line" smooth="yes"/>
      <point x="90.2256" y="278.201"/>
      <point x="91.5703" y="277.6"/>
      <point x="93.0576" y="277.6" type="curve" smooth="yes"/>
      <point x="105.803" y="277.6" type="line" smooth="yes"/>
      <point x="107.318" y="277.6"/>
      <point x="108.692" y="278.218"/>
      <point x="109.673" y="279.227" type="curve" smooth="yes"/>
      <point x="120.27" y="290.195" type="line" smooth="yes"/>
      <point x="121.212" y="291.167"/>
      <point x="121.789" y="292.49"/>
      <point x="121.789" y="293.944" type="curve" smooth="yes"/>
      <point x="121.789" y="331.844" type="line" smooth="yes"/>
      <point x="121.789" y="333.327"/>
      <point x="121.2" y="334.678"/>
      <point x="120.224" y="335.654" type="curve" smooth="yes"/>
      <point x="112.211" y="343.637" type="line" smooth="yes"/>
      <point x="111.236" y="344.612"/>
      <point x="109.89" y="345.215"/>
      <point x="108.405" y="345.215" type="curve" smooth="yes"/>
      <point x="92.8896" y="345.215" type="line" smooth="yes"/>
      <point x="91.5762" y="345.215"/>
      <point x="90.3789" y="344.739"/>
      <point x="89.4482" y="343.966" type="curve" smooth="yes"/>
      <point x="86.9502" y="341.896"/>
      <point x="84.4521" y="339.825"/>
      <point x="81.9541" y="337.755" type="curve"/>
      <point x="82.6211" y="337.255"/>
      <point x="81.9111" y="336.213"/>
      <point x="81.9033" y="335.186" type="curve" smooth="yes"/>
      <point x="81.6592" y="289.028" type="line" smooth="yes"/>
      <point x="81.6592" y="287.523"/>
      <point x="82.2607" y="286.178"/>
    </contour>
    <contour>
      <point x="143.45" y="28.8105" type="curve" smooth="yes"/>
      <point x="138.126" y="27.1074"/>
      <point x="139.709" y="18.5342"/>
      <point x="139.709" y="11.877" type="curve" smooth="yes"/>
      <point x="139.7" y="6.90332"/>
      <point x="132.52" y="1.52832"/>
      <point x="121.98" y="1.52832" type="curve" smooth="yes"/>
      <point x="113.767" y="1.52832"/>
      <point x="108.98" y="5.16504"/>
      <point x="108.98" y="7.41406" type="curve" smooth="yes"/>
      <point x="108.98" y="76.0029" type="line" smooth="yes"/>
      <point x="108.98" y="76.4932"/>
      <point x="109.194" y="76.9287"/>
      <point x="109.552" y="77.21" type="curve" smooth="yes"/>
      <point x="117.32" y="83.3252" type="line" smooth="yes"/>
      <point x="117.577" y="83.5264"/>
      <point x="117.9" y="83.6426"/>
      <point x="118.247" y="83.6426" type="curve" smooth="yes"/>
      <point x="129.364" y="83.6426" type="line" smooth="yes"/>
      <point x="133.904" y="83.6289"/>
      <point x="138.799" y="77.6787"/>
      <point x="139.592" y="68.415" type="curve" smooth="yes"/>
      <point x="139.784" y="66.2061"/>
      <point x="141.311" y="64.3633"/>
      <point x="143.374" y="63.7295" type="curve" smooth="yes"/>
      <point x="147.787" y="62.3701"/>
      <point x="151.97" y="55.3887"/>
      <point x="151.97" y="46.248" type="curve" smooth="yes"/>
      <point x="151.97" y="37.126"/>
      <point x="147.802" y="30.21"/>
    </contour>
    <contour>
      <point x="144.628" y="25.1484" type="curve" smooth="yes"/>
      <point x="159.2" y="29.8369"/>
      <point x="159.367" y="62.8271"/>
      <point x="144.502" y="67.4072" type="curve" smooth="yes"/>
      <point x="143.921" y="67.5859"/>
      <point x="143.479" y="68.1084"/>
      <point x="143.424" y="68.7471" type="curve" smooth="yes"/>
      <point x="142.579" y="78.6094"/>
      <point x="137.22" y="87.4648"/>
      <point x="129.364" y="87.4883" type="curve" smooth="yes"/>
      <point x="124.839" y="87.4883"/>
      <point x="117.624" y="88.4766"/>
      <point x="114.925" y="86.334" type="curve" smooth="yes"/>
      <point x="107.178" y="80.2354" type="line" smooth="yes"/>
      <point x="105.92" y="79.2461"/>
      <point x="105.119" y="77.7139"/>
      <point x="105.119" y="76.002" type="curve" smooth="yes"/>
      <point x="105.119" y="7.41406" type="line" smooth="yes"/>
      <point x="105.119" y="1.04785"/>
      <point x="113.72" y="-2.31738"/>
      <point x="121.98" y="-2.31738" type="curve" smooth="yes"/>
      <point x="133.112" y="-2.31738"/>
      <point x="143.54" y="3.29785"/>
      <point x="143.555" y="11.877" type="curve" smooth="yes"/>
      <point x="143.555" y="23.6816" type="line" smooth="yes"/>
      <point x="143.555" y="24.3691"/>
      <point x="144.006" y="24.9492"/>
    </contour>
    <contour>
      <point x="373.539" y="353.324" type="curve" smooth="yes"/>
      <point x="373.539" y="342.899"/>
      <point x="355.318" y="332.907"/>
      <point x="331.995" y="333.556" type="curve" smooth="yes"/>
      <point x="302.953" y="333.176"/>
      <point x="279.96" y="344.033"/>
      <point x="281.824" y="357.666" type="curve" smooth="yes"/>
      <point x="281.824" y="360.894"/>
      <point x="284.833" y="363.56"/>
      <point x="288.979" y="363.56" type="curve" smooth="yes"/>
      <point x="367.728" y="363.56" type="line" smooth="yes"/>
      <point x="371.568" y="360.411"/>
      <point x="373.539" y="356.884"/>
    </contour>
    <contour>
      <point x="288.698" y="367.405" type="curve" smooth="yes"/>
      <point x="281.859" y="367.405"/>
      <point x="277.783" y="362.456"/>
      <point x="277.783" y="355.672" type="curve" smooth="yes"/>
      <point x="277.783" y="338.615"/>
      <point x="305.367" y="329.695"/>
      <point x="334.334" y="329.695" type="curve" smooth="yes"/>
      <point x="357.067" y="329.695"/>
      <point x="377.385" y="339.299"/>
      <point x="377.385" y="353.324" type="curve" smooth="yes"/>
      <point x="377.385" y="358.93"/>
      <point x="373.911" y="363.63"/>
      <point x="369.061" y="367.405" type="curve" smooth="yes"/>
      <point x="342.273" y="367.405"/>
      <point x="315.485" y="367.405"/>
    </contour>
    <contour>
      <point x="268.005" y="328.349" type="line"/>
      <point x="296.918" y="327.709"/>
      <point x="318.874" y="312.401"/>
      <point x="318.874" y="295.14" type="curve" smooth="yes"/>
      <point x="318.87" y="287.287"/>
      <point x="313.611" y="281.454"/>
      <point x="307.794" y="281.445" type="curve" smooth="yes"/>
      <point x="276.566" y="281.445" type="line" smooth="yes"/>
      <point x="270.965" y="281.445"/>
      <point x="266.774" y="285.429"/>
      <point x="266.76" y="289.914" type="curve" smooth="yes"/>
    </contour>
    <contour>
      <point x="264.281" y="332.215" type="curve"/>
      <point x="263.825" y="318.11"/>
      <point x="263.369" y="304.006"/>
      <point x="262.913" y="289.901" type="curve" smooth="yes"/>
      <point x="262.937" y="282.915"/>
      <point x="269.232" y="277.6"/>
      <point x="276.551" y="277.6" type="curve" smooth="yes"/>
      <point x="307.801" y="277.6" type="line" smooth="yes"/>
      <point x="316.331" y="277.612"/>
      <point x="322.716" y="285.768"/>
      <point x="322.72" y="295.14" type="curve" smooth="yes"/>
      <point x="322.72" y="317.177"/>
      <point x="295.637" y="332.215"/>
    </contour>
    <contour>
      <point x="389.175" y="287.309" type="line" smooth="yes"/>
      <point x="389.175" y="282.995"/>
      <point x="384.57" y="278.853"/>
      <point x="378.097" y="278.846" type="curve" smooth="yes"/>
      <point x="346.83" y="278.846" type="line" smooth="yes"/>
      <point x="341.48" y="278.846"/>
      <point x="335.802" y="286.499"/>
      <point x="335.754" y="297.611" type="curve" smooth="yes"/>
      <point x="337.567" y="314.591"/>
      <point x="361.349" y="326.934"/>
      <point x="389.175" y="324.634" type="curve"/>
    </contour>
    <contour>
      <point x="393.021" y="328.121" type="curve"/>
      <point x="362.486" y="331.276"/>
      <point x="334.618" y="319.616"/>
      <point x="331.907" y="297.73" type="curve" smooth="yes"/>
      <point x="331.915" y="285.959"/>
      <point x="337.858" y="275.019"/>
      <point x="346.83" y="275" type="curve" smooth="yes"/>
      <point x="378.101" y="275" type="line" smooth="yes"/>
      <point x="385.96" y="275.008"/>
      <point x="392.998" y="280.158"/>
      <point x="393.021" y="287.309" type="curve" smooth="yes"/>
      <point x="393.021" y="300.912"/>
      <point x="393.021" y="314.517"/>
    </contour>
    <contour>
      <point x="286.96" y="264.569" type="curve" smooth="yes"/>
      <point x="362.463" y="264.569" type="line" smooth="yes"/>
      <point x="371.714" y="264.569"/>
      <point x="378.764" y="258.182"/>
      <point x="378.768" y="250.874" type="curve" smooth="yes"/>
      <point x="378.758" y="240.321"/>
      <point x="355.348" y="229.38"/>
      <point x="323.422" y="229.376" type="curve" smooth="yes"/>
      <point x="294.641" y="229.376"/>
      <point x="273.269" y="241.243"/>
      <point x="273.269" y="253.493" type="curve" smooth="yes"/>
      <point x="273.277" y="259.311"/>
      <point x="279.111" y="264.569"/>
    </contour>
    <contour>
      <point x="286.958" y="268.416" type="line" smooth="yes"/>
      <point x="277.59" y="268.416"/>
      <point x="269.436" y="262.023"/>
      <point x="269.422" y="253.493" type="curve" smooth="yes"/>
      <point x="269.422" y="237.002"/>
      <point x="294.729" y="225.529"/>
      <point x="323.423" y="225.529" type="curve" smooth="yes"/>
      <point x="354.695" y="225.533"/>
      <point x="382.6" y="235.58"/>
      <point x="382.613" y="250.876" type="curve" smooth="yes"/>
      <point x="382.609" y="260.809"/>
      <point x="373.328" y="268.416"/>
      <point x="362.466" y="268.416" type="curve" smooth="yes"/>
    </contour>
  </outline>
</glyph>
<glyph name="t" format="2">
  <advance width="0"/>
  <unicode hex="0074"/>
  <outline>
    <contour>
      <point x="122.901" y="183.687" type="line"/>
      <point x="144.632" y="187.647" type="line" smooth="yes"/>
      <point x="144.834" y="187.685"/>
      <point x="145.042" y="187.703"/>
      <point x="145.255" y="187.703" type="curve" smooth="yes"/>
      <point x="147.165" y="187.703"/>
      <point x="148.713" y="186.152"/>
      <point x="148.713" y="184.242" type="curve" smooth="yes"/>
      <point x="148.709" y="126.725" type="line" smooth="yes"/>
      <point x="148.709" y="126.17"/>
      <point x="148.576" y="125.642"/>
      <point x="148.344" y="125.177" type="curve" smooth="yes"/>
      <point x="137.056" y="102.609" type="line" smooth="yes"/>
      <point x="136.487" y="101.474"/>
      <point x="135.313" y="100.692"/>
      <point x="133.957" y="100.692" type="curve" smooth="yes"/>
      <point x="133.542" y="100.692"/>
      <point x="133.146" y="100.771"/>
      <point x="132.776" y="100.904" type="curve" smooth="yes"/>
      <point x="110.363" y="109.07" type="line" smooth="yes"/>
      <point x="109.034" y="109.554"/>
      <point x="108.083" y="110.829"/>
      <point x="108.083" y="112.325" type="curve" smooth="yes"/>
      <point x="108.083" y="112.763"/>
      <point x="108.167" y="113.182"/>
      <point x="108.315" y="113.566" type="curve" smooth="yes"/>
      <point x="119.824" y="143.532" type="line" smooth="yes"/>
      <point x="119.973" y="143.918"/>
      <point x="120.056" y="144.338"/>
      <point x="120.056" y="144.775" type="curve" smooth="yes"/>
      <point x="120.056" y="180.302" type="line" smooth="yes"/>
      <point x="120.056" y="182"/>
      <point x="121.284" y="183.414"/>
      <point x="122.897" y="183.707" type="curve" smooth="yes"/>
    </contour>
  </outline>
</glyph>
<glyph name="v" format="2">
  <advance width="0"/>
  <unicode hex="0076"/>
  <outline>
    <contour>
      <point x="391.1" y="287.308" type="line" smooth="yes"/>
      <point x="391.08" y="281.578"/>
      <point x="385.264" y="276.931"/>
      <point x="378.1" y="276.923" type="curve" smooth="yes"/>
      <point x="346.831" y="276.923" type="line" smooth="yes"/>
      <point x="339.659" y="276.938"/>
      <point x="333.838" y="286.255"/>
      <point x="333.831" y="297.73" type="curve" smooth="yes"/>
      <point x="333.831" y="297.736"/>
      <point x="333.832" y="297.742"/>
      <point x="333.833" y="297.748" type="curve" smooth="yes"/>
      <point x="335.786" y="316.62"/>
      <point x="361.445" y="329.45"/>
      <point x="391.1" y="326.385" type="curve"/>
    </contour>
  </outline>
</glyph>
<glyph name="w" format="2">
  <advance width="0"/>
  <unicode hex="0077"/>
  <outline>
    <contour>
      <point x="362.396" y="593.239" type="curve" smooth="yes"/>
      <point x="354.954" y="621.018"/>
      <point x="357.928" y="645.95"/>
      <point x="369.039" y="648.928" type="curve" smooth="yes"/>
      <point x="380.15" y="651.904"/>
      <point x="395.191" y="631.8"/>
      <point x="402.635" y="604.021" type="curve" smooth="yes"/>
      <point x="410.078" y="576.243"/>
      <point x="407.104" y="551.311"/>
      <point x="395.993" y="548.334" type="curve" smooth="yes"/>
      <point x="384.882" y="545.356"/>
      <point x="369.84" y="565.462"/>
    </contour>
  </outline>
</glyph>
<glyph name="x" format="2">
  <advance width="0"/>
  <unicode hex="0078"/>
  <outline>
    <contour>
      <point x="199.77" y="732.692" type="curve"/>
      <point x="207.325" y="702.756"/>
      <point x="218.947" y="680.092"/>
      <point x="226.006" y="681.813" type="curve" smooth="yes"/>
      <point x="226.161" y="681.852"/>
      <point x="226.313" y="681.9"/>
      <point x="226.462" y="681.962" type="curve"/>
      <point x="226.441" y="672.641"/>
      <point x="214.493" y="665.077"/>
      <point x="199.779" y="665.077" type="curve" smooth="yes"/>
      <point x="199.77" y="665.077" type="line"/>
      <point x="199.76" y="665.077" type="line" smooth="yes"/>
      <point x="185.046" y="665.077"/>
      <point x="173.097" y="672.641"/>
      <point x="173.077" y="681.962" type="curve"/>
      <point x="173.226" y="681.9"/>
      <point x="173.378" y="681.884"/>
      <point x="173.533" y="681.847" type="curve" smooth="yes"/>
      <point x="180.591" y="680.124"/>
      <point x="192.213" y="702.756"/>
    </contour>
  </outline>
</glyph>
